# Blender v2.78 (sub 0) OBJ File: 'city.blend'
# www.blender.org
mtllib city.mtl
o Cylinder.005_Cylinder.006
v 3.596008 -0.006724 -5.826295
v 3.596008 3.655946 -5.826295
v 3.670869 -0.006724 -5.783074
v 3.670869 3.655946 -5.783074
v 3.670869 -0.006724 -5.696631
v 3.670869 3.655946 -5.696631
v 3.596008 -0.006724 -5.653410
v 3.596008 3.655946 -5.653410
v 3.521146 -0.006724 -5.696631
v 3.521146 3.655946 -5.696631
v 3.521146 -0.006724 -5.783074
v 3.521146 3.655946 -5.783074
vn 0.5000 0.0000 -0.8660
vn 1.0000 0.0000 0.0000
vn 0.5000 0.0000 0.8660
vn -0.5000 0.0000 0.8660
vn 0.0000 1.0000 0.0000
vn -0.5000 0.0000 -0.8660
vn -1.0000 0.0000 0.0000
vn 0.0000 -1.0000 0.0000
usemtl None
s off
f 1//1 2//1 4//1 3//1
f 3//2 4//2 6//2 5//2
f 5//3 6//3 8//3 7//3
f 7//4 8//4 10//4 9//4
f 4//5 2//5 12//5 10//5 8//5 6//5
f 11//6 12//6 2//6 1//6
f 9//7 10//7 12//7 11//7
f 1//8 3//8 5//8 7//8 9//8 11//8
o Cylinder.004_Cylinder.005
v 3.596008 0.537245 -6.145534
v 3.596008 4.199915 -6.145534
v 3.670869 0.537245 -6.102313
v 3.670869 4.199915 -6.102313
v 3.670869 0.537245 -6.015870
v 3.670869 4.199915 -6.015870
v 3.596008 0.537245 -5.972649
v 3.596008 4.199915 -5.972649
v 3.521146 0.537245 -6.015870
v 3.521146 4.199915 -6.015870
v 3.521146 0.537245 -6.102313
v 3.521146 4.199915 -6.102313
vn 0.5000 0.0000 -0.8660
vn 1.0000 0.0000 0.0000
vn 0.5000 0.0000 0.8660
vn -0.5000 0.0000 0.8660
vn 0.0000 1.0000 0.0000
vn -0.5000 0.0000 -0.8660
vn -1.0000 0.0000 0.0000
vn 0.0000 -1.0000 0.0000
usemtl None
s off
f 13//9 14//9 16//9 15//9
f 15//10 16//10 18//10 17//10
f 17//11 18//11 20//11 19//11
f 19//12 20//12 22//12 21//12
f 16//13 14//13 24//13 22//13 20//13 18//13
f 23//14 24//14 14//14 13//14
f 21//15 22//15 24//15 23//15
f 13//16 15//16 17//16 19//16 21//16 23//16
o Cylinder.003_Cylinder.004
v 3.629114 3.530896 2.876964
v 3.629114 7.193566 2.876964
v 3.703975 3.530896 2.920186
v 3.703975 7.193566 2.920186
v 3.703975 3.530896 3.006628
v 3.703975 7.193566 3.006628
v 3.629114 3.530896 3.049850
v 3.629114 7.193566 3.049850
v 3.554252 3.530896 3.006628
v 3.554252 7.193566 3.006628
v 3.554252 3.530896 2.920186
v 3.554252 7.193566 2.920186
vn 0.5000 0.0000 -0.8660
vn 1.0000 0.0000 0.0000
vn 0.5000 0.0000 0.8660
vn -0.5000 0.0000 0.8660
vn 0.0000 1.0000 0.0000
vn -0.5000 0.0000 -0.8660
vn -1.0000 0.0000 0.0000
vn 0.0000 -1.0000 0.0000
usemtl None
s off
f 25//17 26//17 28//17 27//17
f 27//18 28//18 30//18 29//18
f 29//19 30//19 32//19 31//19
f 31//20 32//20 34//20 33//20
f 28//21 26//21 36//21 34//21 32//21 30//21
f 35//22 36//22 26//22 25//22
f 33//23 34//23 36//23 35//23
f 25//24 27//24 29//24 31//24 33//24 35//24
o Cylinder.002_Cylinder.003
v 0.798097 3.173962 -5.330566
v 0.798097 6.881632 -5.330566
v 0.927287 3.173962 -5.255978
v 0.927287 6.881632 -5.255978
v 0.927287 3.173962 -5.106802
v 0.927287 6.881632 -5.106802
v 0.798097 3.173962 -5.032215
v 0.798097 6.881632 -5.032215
v 0.668907 3.173962 -5.106802
v 0.668907 6.881632 -5.106802
v 0.668907 3.173962 -5.255978
v 0.668907 6.881632 -5.255978
vn 0.5000 0.0000 -0.8660
vn 1.0000 0.0000 0.0000
vn 0.5000 0.0000 0.8660
vn -0.5000 0.0000 0.8660
vn 0.0000 1.0000 0.0000
vn -0.5000 0.0000 -0.8660
vn -1.0000 0.0000 0.0000
vn 0.0000 -1.0000 0.0000
usemtl None
s off
f 37//25 38//25 40//25 39//25
f 39//26 40//26 42//26 41//26
f 41//27 42//27 44//27 43//27
f 43//28 44//28 46//28 45//28
f 40//29 38//29 48//29 46//29 44//29 42//29
f 47//30 48//30 38//30 37//30
f 45//31 46//31 48//31 47//31
f 37//32 39//32 41//32 43//32 45//32 47//32
o Cylinder.001_Cylinder.002
v 0.636504 3.431815 1.594036
v 0.636504 7.369322 1.594036
v 0.716983 3.431815 1.640500
v 0.716983 7.369322 1.640500
v 0.716983 3.431815 1.733429
v 0.716983 7.369322 1.733429
v 0.636504 3.431815 1.779894
v 0.636504 7.369322 1.779894
v 0.556025 3.431815 1.733429
v 0.556025 7.369322 1.733429
v 0.556025 3.431815 1.640500
v 0.556025 7.369322 1.640500
vn 0.5000 0.0000 -0.8660
vn 1.0000 0.0000 0.0000
vn 0.5000 0.0000 0.8660
vn -0.5000 0.0000 0.8660
vn 0.0000 1.0000 0.0000
vn -0.5000 0.0000 -0.8660
vn -1.0000 0.0000 0.0000
vn 0.0000 -1.0000 0.0000
usemtl None
s off
f 49//33 50//33 52//33 51//33
f 51//34 52//34 54//34 53//34
f 53//35 54//35 56//35 55//35
f 55//36 56//36 58//36 57//36
f 52//37 50//37 60//37 58//37 56//37 54//37
f 59//38 60//38 50//38 49//38
f 57//39 58//39 60//39 59//39
f 49//40 51//40 53//40 55//40 57//40 59//40
o Cylinder
v 0.636504 3.431815 2.480391
v 0.636504 7.369322 2.480391
v 0.716983 3.431815 2.526856
v 0.716983 7.369322 2.526856
v 0.716983 3.431815 2.619785
v 0.716983 7.369322 2.619785
v 0.636504 3.431815 2.666249
v 0.636504 7.369322 2.666249
v 0.556025 3.431815 2.619785
v 0.556025 7.369322 2.619785
v 0.556025 3.431815 2.526856
v 0.556025 7.369322 2.526856
vn 0.5000 0.0000 -0.8660
vn 1.0000 0.0000 0.0000
vn 0.5000 0.0000 0.8660
vn -0.5000 0.0000 0.8660
vn 0.0000 1.0000 0.0000
vn -0.5000 0.0000 -0.8660
vn -1.0000 0.0000 0.0000
vn 0.0000 -1.0000 0.0000
usemtl None
s off
f 61//41 62//41 64//41 63//41
f 63//42 64//42 66//42 65//42
f 65//43 66//43 68//43 67//43
f 67//44 68//44 70//44 69//44
f 64//45 62//45 72//45 70//45 68//45 66//45
f 71//46 72//46 62//46 61//46
f 69//47 70//47 72//47 71//47
f 61//48 63//48 65//48 67//48 69//48 71//48
o Cube.001
v 3.188136 0.000000 -0.871459
v 3.188136 0.000000 1.917457
v 1.445218 0.000000 1.917457
v 1.445218 0.000000 -0.871459
v 3.188136 2.027792 -0.871459
v 3.188135 2.027792 1.917457
v 1.445217 2.027792 1.917456
v 1.445218 2.027792 -0.871459
v 3.188137 0.000000 -2.982560
v 1.445219 0.000000 -2.982561
v 3.810720 0.000000 -4.835455
v 1.445219 2.711303 -4.835456
v 3.188137 0.000000 -4.835456
v 1.445219 0.000000 -4.835456
v 3.188137 2.027793 -4.835455
v 1.445219 2.027793 -4.835456
v 3.188137 3.607243 -2.982560
v 1.445219 3.607243 -2.982560
v 3.188137 3.607243 -4.835455
v 1.445219 3.607243 -4.835456
v 3.188138 0.000001 -6.329165
v 1.445220 0.000001 -6.329166
v 3.188138 2.027793 -6.329165
v 1.445220 2.027793 -6.329166
v 3.188137 2.418870 -4.835455
v 1.445219 2.418870 -4.835456
v 3.188138 2.418870 -6.329165
v 1.445220 2.418870 -6.329166
v 3.188136 0.000000 3.301278
v 1.445217 0.000000 3.301278
v 3.188136 2.027792 3.301278
v 1.445217 2.027792 3.301278
v 3.188136 5.649885 1.917457
v 1.445218 5.649885 1.917457
v 3.188136 5.649885 3.301278
v 1.445217 5.649885 3.301278
v 3.188136 0.000000 4.441389
v 1.445217 0.000000 4.441389
v 3.188135 2.027792 4.441390
v 1.445217 2.027792 4.441389
v 3.188135 0.000000 5.997154
v 1.445217 0.000000 5.997154
v 3.188135 2.027792 5.997155
v 1.445217 2.027792 5.997154
v 3.188135 4.344030 4.441390
v 1.445217 4.344030 4.441389
v 3.188135 4.344030 5.997155
v 1.445217 4.344030 5.997154
v 3.188135 0.000000 7.635499
v 1.445217 0.000000 7.635499
v 3.188135 2.027792 7.635499
v 1.445217 2.027792 7.635499
v 3.188135 3.001443 5.997155
v 1.445217 3.001443 5.997154
v 3.188135 3.001443 7.635499
v 1.445217 3.001443 7.635499
v 3.188137 2.027792 -2.982560
v 1.445219 2.027792 -2.982561
v 3.188136 5.244582 -0.871459
v 1.445218 5.244582 -0.871459
v 3.188137 5.244582 -2.982560
v 1.445219 5.244582 -2.982560
v 3.188138 0.000001 -7.256655
v 1.445220 0.000001 -7.256656
v 3.188138 2.027793 -7.256655
v 1.445220 2.027793 -7.256656
v 3.810721 2.027793 -4.835455
v 3.810721 0.000001 -6.329165
v 3.810721 2.027793 -6.329165
v 3.810721 2.418870 -4.835455
v 3.810721 2.418870 -6.329165
v 3.605860 0.000000 -0.871459
v 3.605860 0.000000 1.917457
v 3.605860 2.027792 -0.871459
v 3.605859 2.027792 1.917457
v 3.725136 0.000000 4.441389
v 3.725136 2.027792 4.441390
v 3.725136 0.000000 5.997154
v 3.725136 2.027792 5.997155
v 3.725136 4.344030 4.441390
v 3.725136 4.344030 5.997155
v 4.072666 0.000000 1.917457
v 4.072665 2.027792 1.917457
v 4.072665 0.000000 3.301278
v 4.072665 2.027792 3.301278
v 4.072666 5.649885 1.917457
v 4.072665 5.649885 3.301278
vn 0.0000 -1.0000 0.0000
vn 0.0000 1.0000 0.0000
vn -1.0000 0.0000 -0.0000
vn 0.0000 0.0000 -1.0000
vn -0.0000 0.0000 1.0000
vn 1.0000 0.0000 0.0000
vn -0.9857 0.0000 0.1684
usemtl Material
s off
f 73//49 74//49 75//49 76//49
f 77//50 80//50 79//50 78//50
f 73//49 76//49 82//49 81//49
f 86//51 88//51 96//51 94//51
f 90//50 89//50 91//50 92//50
f 87//52 88//52 92//52 91//52
f 96//50 95//50 137//50 138//50
f 85//49 86//49 94//49 93//49
f 99//50 97//50 142//50 143//50
f 97//53 87//53 139//53 142//53
f 98//50 97//50 99//50 100//50
f 95//52 96//52 100//52 99//52
f 88//53 87//53 97//53 98//53
f 96//51 88//51 98//51 100//51
f 104//51 102//51 110//51 112//51
f 104//53 103//53 107//53 108//53
f 75//49 74//49 101//49 102//49
f 105//50 106//50 108//50 107//50
f 112//51 110//51 114//51 116//51
f 102//49 101//49 109//49 110//49
f 103//50 104//50 112//50 111//50
f 101//54 103//54 111//54 109//54
f 114//49 113//49 121//49 122//49
f 110//49 109//49 113//49 114//49
f 115//53 113//53 150//53 151//53
f 111//52 117//52 152//52 149//52
f 117//50 118//50 120//50 119//50
f 112//51 116//51 120//51 118//51
f 116//53 115//53 119//53 120//53
f 111//52 112//52 118//52 117//52
f 121//53 123//53 124//53 122//53
f 116//51 124//51 128//51 126//51
f 113//54 115//54 123//54 121//54
f 116//51 114//51 122//51 124//51
f 125//50 126//50 128//50 127//50
f 115//52 116//52 126//52 125//52
f 123//54 115//54 125//54 127//54
f 124//53 123//53 127//53 128//53
f 81//49 82//49 86//49 85//49
f 86//55 84//55 88//55
f 129//54 81//54 85//54 87//54
f 88//51 130//51 90//51 92//51
f 86//51 82//51 130//51 88//51
f 139//54 141//54 143//54 142//54
f 129//54 87//54 91//54 89//54
f 130//53 129//53 89//53 90//53
f 132//50 131//50 133//50 134//50
f 129//52 130//52 134//52 133//52
f 75//51 79//51 80//51 76//51
f 107//53 103//53 157//53 159//53
f 78//53 74//53 145//53 147//53
f 79//51 75//51 102//51 104//51
f 78//52 79//52 106//52 105//52
f 79//51 104//51 108//51 106//51
f 78//52 105//52 158//52 155//52
f 76//51 80//51 130//51 82//51
f 80//53 77//53 131//53 132//53
f 77//54 73//54 81//54 129//54
f 77//54 129//54 133//54 131//54
f 130//51 80//51 132//51 134//51
f 137//52 135//52 136//52 138//52
f 95//54 93//54 135//54 137//54
f 94//51 96//51 138//51 136//51
f 93//49 94//49 136//49 135//49
f 139//54 83//54 140//54 141//54
f 95//52 99//52 143//52 141//52
f 87//53 85//53 83//53 139//53
f 93//52 95//52 141//52 140//52
f 85//49 93//49 140//49 83//49
f 144//54 146//54 147//54 145//54
f 77//50 78//50 147//50 146//50
f 74//49 73//49 144//49 145//49
f 73//52 77//52 146//52 144//52
f 151//54 149//54 152//54 153//54
f 148//54 149//54 151//54 150//54
f 113//49 109//49 148//49 150//49
f 109//52 111//52 149//52 148//52
f 119//53 115//53 151//53 153//53
f 117//50 119//50 153//50 152//50
f 154//54 155//54 157//54 156//54
f 157//54 155//54 158//54 159//54
f 105//50 107//50 159//50 158//50
f 74//52 78//52 155//52 154//52
f 101//49 74//49 154//49 156//49
f 103//53 101//53 156//53 157//53
o Cube
v 1.000000 0.000000 -1.000000
v 1.000000 0.000000 1.000000
v -1.000000 0.000000 1.000000
v -1.000000 0.000000 -1.000000
v 1.000000 7.717669 -0.999999
v 0.999999 7.717669 1.000001
v -1.000000 7.717669 1.000000
v -1.000000 7.717669 -1.000000
v 1.000000 2.326893 -1.000000
v 1.000000 2.326893 1.000000
v -1.000000 2.326893 1.000000
v -1.000000 2.326893 -1.000000
v 1.000001 0.000000 -3.422491
v -0.999999 0.000000 -3.422491
v -0.999999 2.326894 -3.422491
v 1.000001 0.000000 -5.548689
v -0.999999 0.000000 -5.548690
v 1.000001 3.111222 -5.548689
v -0.999999 3.111222 -5.548690
v 1.000001 2.326894 -3.422490
v 1.000001 2.326894 -5.548689
v -0.999999 2.326894 -5.548690
v 1.000001 5.558006 -3.422490
v -0.999999 5.558006 -3.422491
v 1.000001 5.558006 -5.548689
v -0.999999 5.558006 -5.548690
v 1.000002 0.000001 -7.262722
v -0.999998 0.000001 -7.262723
v 1.000002 2.326894 -7.262722
v -0.999998 2.326894 -7.262723
v 1.000001 4.111513 -5.548689
v -0.999999 4.111513 -5.548690
v 1.000002 4.111513 -7.262722
v -0.999998 4.111513 -7.262723
v 1.000000 0.000000 3.788219
v -1.000001 0.000000 3.788219
v 0.999999 2.326893 3.788220
v -1.000001 2.326893 3.788219
v 1.000000 4.533584 1.000000
v -1.000000 4.533584 1.000000
v 0.999999 4.533584 3.788220
v -1.000001 4.533584 3.788219
v 0.999999 0.000000 5.096498
v -1.000001 0.000000 5.096498
v 0.999999 2.326893 5.096498
v -1.000001 2.326893 5.096498
v 0.999999 0.000000 6.881740
v -1.000001 0.000000 6.881740
v 0.999999 2.326893 6.881740
v -1.000001 2.326893 6.881740
v 0.999999 6.293875 5.096498
v -1.000001 6.293875 5.096498
v 0.999999 6.293875 6.881740
v -1.000001 6.293875 6.881740
v 0.999999 0.000000 7.675967
v -1.000001 0.000000 7.675967
v 0.999999 2.326893 7.675967
v -1.000001 2.326893 7.675967
v 0.999999 3.444158 6.881740
v -1.000001 3.444158 6.881740
v 0.999999 3.444158 7.675967
v -1.000001 3.444158 7.675967
vn 0.0000 -1.0000 0.0000
vn 0.0000 1.0000 0.0000
vn 1.0000 0.0000 0.0000
vn -0.0000 -0.0000 1.0000
vn -1.0000 -0.0000 -0.0000
vn 0.0000 0.0000 -1.0000
vn 0.9988 0.0000 0.0490
usemtl Material
s off
f 160//56 161//56 162//56 163//56
f 164//57 167//57 166//57 165//57
f 168//58 164//58 165//58 169//58
f 169//59 165//59 166//59 170//59
f 170//60 166//60 167//60 171//60
f 163//60 171//60 174//60 173//60
f 164//61 168//61 171//61 167//61
f 162//60 170//60 171//60 163//60
f 161//58 169//58 196//58 194//58
f 160//58 168//58 169//58 161//58
f 160//56 163//56 173//56 172//56
f 172//56 173//56 176//56 175//56
f 179//58 172//58 175//58 180//58
f 183//57 182//57 184//57 185//57
f 179//58 180//58 184//58 182//58
f 180//61 181//61 185//61 184//61
f 188//61 186//61 187//61 189//61
f 180//58 188//58 192//58 190//58
f 191//57 190//57 192//57 193//57
f 188//61 189//61 193//61 192//61
f 181//59 180//59 190//59 191//59
f 189//60 181//60 191//60 193//60
f 197//60 195//60 203//60 205//60
f 197//59 196//59 200//59 201//59
f 162//56 161//56 194//56 195//56
f 170//60 162//60 195//60 197//60
f 198//57 199//57 201//57 200//57
f 169//61 170//61 199//61 198//61
f 170//60 197//60 201//60 199//60
f 196//58 169//58 198//58 200//58
f 205//60 203//60 207//60 209//60
f 195//56 194//56 202//56 203//56
f 196//57 197//57 205//57 204//57
f 194//58 196//58 204//58 202//58
f 207//56 206//56 214//56 215//56
f 203//56 202//56 206//56 207//56
f 208//58 204//58 210//58 212//58
f 202//58 204//58 208//58 206//58
f 210//57 211//57 213//57 212//57
f 205//60 209//60 213//60 211//60
f 209//59 208//59 212//59 213//59
f 204//61 205//61 211//61 210//61
f 214//59 216//59 217//59 215//59
f 209//60 217//60 221//60 219//60
f 206//58 208//58 216//58 214//58
f 209//60 207//60 215//60 217//60
f 218//57 219//57 221//57 220//57
f 208//61 209//61 219//61 218//61
f 216//58 208//58 218//58 220//58
f 217//59 216//59 220//59 221//59
f 171//57 168//57 179//57 174//57
f 168//58 160//58 172//58 179//58
f 176//62 178//62 181//62
f 176//60 181//60 189//60 187//60
f 181//60 174//60 183//60 185//60
f 176//60 173//60 174//60 181//60
f 177//59 175//59 180//59
f 174//59 179//59 182//59 183//59
f 175//56 176//56 187//56 186//56
f 180//58 175//58 186//58 188//58
