# Blender v2.75 (sub 0) OBJ File: 'druiden2.blend'
# www.blender.org
mtllib druid.mtl
o Sphere
v -0.119565 3.660558 0.586600
v 0.000000 3.653581 0.712094
v 0.000000 3.815943 0.115843
v 0.000000 3.722133 0.239736
v 0.000000 3.546589 0.613298
v 0.081198 4.116615 0.181294
v 0.187347 3.811982 0.352692
v 0.119565 3.660558 0.586600
v -0.010214 4.116133 0.264917
v -0.000000 3.929256 0.541625
v -0.000000 3.810768 0.658689
v -0.015507 4.205640 0.189506
v -0.113029 4.117354 0.195803
v -0.187347 3.811982 0.352692
v 0.263054 4.460133 0.445579
v 0.191843 4.459757 0.510722
v 0.187720 4.443475 0.403166
v -0.171073 4.444839 0.429967
v -0.247044 4.462072 0.483682
v -0.166950 4.461121 0.537523
v 0.366026 5.040339 0.155906
v -0.366027 5.040339 0.155906
vn 0.584800 -0.739700 -0.332900
vn 0.758300 -0.245500 -0.603900
vn 0.682700 0.573900 0.452300
vn 0.772100 0.423000 0.474400
vn -0.670100 0.537900 0.511600
vn -0.629800 -0.527000 0.570700
vn -0.750400 -0.281100 -0.598300
vn -0.584800 -0.739700 -0.332900
vn -0.218500 0.172800 -0.960400
vn 0.090400 0.188500 -0.977900
vn 0.629800 -0.527000 0.570700
vn -0.873100 0.435400 0.219200
vn 0.698100 0.230300 0.677900
vn -0.698100 0.230300 0.677900
vn -0.772100 0.423000 0.474400
vn 0.913400 0.391900 0.109800
vn 0.350900 0.444900 -0.823900
vn 0.497600 -0.678800 0.540000
vn -0.418400 -0.672500 0.610500
vn -0.453300 0.463900 -0.761100
vn -0.958800 0.283900 -0.006200
vn 0.511200 -0.454800 -0.729300
vn 0.654300 0.241700 0.716600
vn -0.522600 0.336500 0.783400
vn 0.957600 0.277300 -0.078700
vn -0.574700 -0.489900 -0.655600
usemtl None
s off
f 5//1 4//1 7//1 8//1
f 4//2 3//2 6//2 7//2
f 7//3 6//3 9//3 10//3
f 8//4 7//4 10//4 11//4
f 10//5 9//5 13//5 14//5
f 2//6 1//6 5//6
f 14//7 13//7 3//7 4//7
f 1//8 14//8 4//8 5//8
f 13//9 12//9 3//9
f 3//10 12//10 6//10
f 2//11 5//11 8//11
f 12//12 9//12 16//12 17//12
f 2//13 8//13 11//13
f 2//14 11//14 1//14
f 11//15 10//15 14//15 1//15
f 9//16 12//16 18//16 20//16
f 6//17 12//17 17//17 15//17
f 9//18 6//18 15//18 16//18
f 13//19 9//19 20//19 19//19
f 12//20 13//20 19//20 18//20
f 17//21 16//21 21//21
f 15//22 17//22 21//22
f 16//23 15//23 21//23
f 19//24 20//24 22//24
f 20//25 18//25 22//25
f 18//26 19//26 22//26
o Cube
v 0.485248 2.866297 -0.369627
v 0.382234 2.982341 0.488846
v -0.382235 2.982341 0.488846
v -0.494896 2.859652 -0.352947
v 0.665588 0.200220 -0.424899
v 0.665587 0.200220 0.536562
v -0.665588 0.200220 0.536561
v -0.665587 0.200220 -0.424900
v 0.580895 2.609069 0.091449
v 0.000000 2.466983 -0.384363
v -0.000000 2.868036 0.491067
v -0.580895 2.609069 0.091449
v 0.000000 0.200220 -0.982857
v -0.948490 0.200220 -0.000000
v -0.000000 0.200220 1.019916
v 0.948489 0.200220 0.000000
v 0.378471 3.737481 -0.009350
v -0.000000 0.643602 0.000000
v 0.224113 4.168923 0.149054
v 0.214195 4.012615 0.363249
v -0.000000 4.308307 -0.056218
v -0.214195 4.168923 -0.065142
v -0.000000 4.200784 0.550321
v -0.214195 4.012615 0.363248
v -0.224113 4.168923 0.149053
v 0.214195 4.168923 -0.065141
v -0.000000 4.308307 0.247052
v 0.267309 3.737481 -0.276659
v -0.000000 3.815906 0.131022
v 0.267309 3.737481 0.257959
v -0.267309 3.737481 0.257958
v -0.378471 3.737481 -0.009351
v -0.000000 3.815906 -0.332682
v -0.267309 3.737481 -0.276659
v 0.487548 3.372079 0.085184
v -0.000000 3.423436 0.210771
v -0.331808 3.372079 0.356696
v -0.487549 3.372080 0.085184
v -0.532481 3.222686 -0.318889
v 0.532481 3.222686 -0.318889
v 0.331808 3.372080 0.356697
v 0.000000 3.288918 -0.530991
v 0.856738 2.985479 0.111454
v 0.608656 3.095317 0.341666
v -0.856738 2.985479 0.111454
v -0.613378 3.053951 -0.178297
v 0.604491 3.062208 -0.199024
v -0.609417 3.095317 0.341665
v 0.588516 2.119982 0.813897
v 0.579379 2.678626 1.043200
v -0.589394 2.119981 0.813897
v -0.736417 1.642956 0.623956
v 0.743799 1.619018 0.602453
v -0.580257 2.678625 1.043200
v 0.936230 1.615906 0.599657
v 1.116532 2.119982 0.813898
v 0.910720 2.678626 1.043200
v -1.117410 2.119981 0.813897
v -0.928848 1.646068 0.626751
v -0.911598 2.678625 1.043200
v 0.378572 2.075387 -0.258924
v 0.262646 1.970446 0.310412
v -0.262646 1.970446 0.310412
v -0.378573 2.075387 -0.258924
v 0.000000 2.021506 -0.531599
v -0.487424 2.018960 0.047210
v -0.000000 2.024242 0.440834
v 0.487424 2.018960 0.047210
v -0.602365 2.215410 0.354674
v -0.800017 2.140506 0.324074
v -0.602815 2.748240 0.568648
v -0.549608 2.432076 0.436386
v -1.009460 2.430540 0.438244
v -0.842621 2.748240 0.568648
v 0.586452 2.224877 0.293270
v 0.781036 2.142179 0.259205
v 0.540710 2.463511 0.398362
v 0.586621 2.777956 0.524942
v 0.985798 2.465047 0.396505
v 0.823356 2.777956 0.524942
v -0.668020 2.591316 1.032478
v -0.673502 2.395000 0.894896
v -0.866825 2.591316 1.032478
v -0.898621 2.395000 0.894896
v 0.672625 2.395000 0.894896
v 0.667142 2.591316 1.032478
v 0.897744 2.395000 0.894896
v 0.865947 2.591316 1.032478
v -0.668020 2.502527 1.159170
v -0.673502 2.306212 1.021588
v -0.866825 2.502527 1.159170
v -0.898621 2.306212 1.021588
v 0.672625 2.306212 1.021589
v 0.667142 2.502527 1.159170
v 0.897744 2.306212 1.021589
v 0.865947 2.502527 1.159170
v -0.668020 2.352571 1.237383
v -0.673502 2.116486 1.279005
v -0.866825 2.352571 1.237383
v -0.898621 2.116486 1.279005
v 0.672625 2.116487 1.279005
v 0.667142 2.352571 1.237383
v 0.897744 2.116487 1.279005
v 0.865947 2.352571 1.237383
vn 0.941800 0.167800 0.291300
vn 0.782900 -0.186600 0.593600
vn -0.211600 -0.133000 0.968300
vn -0.939100 -0.154500 -0.307000
vn -0.607200 0.176500 -0.774700
vn 0.607200 0.176500 -0.774700
vn -0.782900 -0.186600 0.593600
vn 0.211600 -0.133000 0.968300
vn 0.938100 -0.151000 -0.311800
vn 0.247000 -0.615000 0.748800
vn 0.918800 0.320000 -0.231000
vn -0.247000 -0.615000 0.748800
vn -0.357700 -0.867700 0.345200
vn -0.337800 -0.887200 -0.314100
vn 0.357700 -0.867700 0.345200
vn 0.337800 -0.887200 -0.314100
vn -0.694400 0.635600 0.337400
vn 0.694400 0.635600 0.337400
vn 0.534900 0.844900 -0.010300
vn -0.534900 0.844900 -0.010200
vn -0.941800 0.167800 0.291300
vn 0.290100 0.460000 -0.839200
vn -0.918800 0.320000 -0.231000
vn -0.290100 0.460000 -0.839200
vn -0.351200 0.294600 -0.888700
vn -0.910000 0.376600 -0.173600
vn 0.351200 0.294600 -0.888700
vn -0.850900 0.313600 0.421500
vn -0.374600 0.182200 0.909100
vn 0.910000 0.376600 -0.173600
vn 0.374600 0.182200 0.909100
vn 0.850900 0.313600 0.421500
vn 0.214600 0.381000 0.899300
vn -0.214600 0.381000 0.899300
vn 0.244200 -0.088400 -0.965700
vn -0.259300 -0.099500 -0.960700
vn 0.998700 0.035400 0.036100
vn -0.981600 -0.115900 0.152000
vn -0.835100 0.270500 0.479000
vn 0.835100 0.270500 0.479000
vn 0.974500 -0.152600 0.164800
vn 0.152200 -0.495800 -0.855000
vn -0.108100 0.700900 0.705000
vn -0.670800 0.612100 -0.418700
vn -0.652300 0.649400 0.390900
vn -0.998400 0.020400 0.053100
vn -0.053300 0.649400 -0.758600
vn -0.195800 -0.528200 -0.826300
vn 0.000000 -0.282500 0.959300
vn 0.106800 -0.432900 0.895100
vn 0.002000 -0.368500 0.929600
vn 0.001900 -0.390000 0.920800
vn 0.839800 -0.172200 -0.514800
vn -0.968700 -0.243900 -0.045300
vn -0.918100 0.396100 -0.013900
vn 0.917200 0.397700 -0.024900
vn 0.000000 0.989400 0.145100
vn 0.000000 0.982100 0.188200
vn -0.815900 -0.213000 -0.537600
vn 0.965700 -0.247300 -0.078700
vn -0.034900 0.668300 -0.743000
vn 0.677100 0.619600 -0.397000
vn 0.651700 0.649000 0.392600
vn 0.108600 0.700800 0.705000
vn 0.869600 0.202100 -0.450400
vn 0.545000 0.241000 0.803100
vn -0.816800 0.223200 0.532000
vn 0.315300 0.000800 -0.949000
vn -0.324100 0.010300 -0.946000
vn -0.869600 0.202100 -0.450400
vn -0.545000 0.241000 0.803100
vn 0.816800 0.223200 0.532000
vn 0.998000 -0.012800 0.062200
vn -0.706800 -0.216900 -0.673400
vn -0.131000 0.540900 0.830800
vn -0.798700 0.523700 0.296400
vn -0.506600 -0.467200 -0.724600
vn 0.945000 -0.299900 0.130900
vn 0.154800 0.486000 0.860100
vn 0.800800 0.506900 0.319100
vn -0.995500 0.032300 0.088800
vn 0.736200 -0.180400 -0.652300
vn 0.487800 -0.450200 -0.747900
vn -0.941100 -0.310700 0.133500
vn -0.991300 0.107700 0.075500
vn -0.106800 -0.432900 0.895100
vn 0.000000 -0.121900 0.992500
vn 0.090600 -0.458200 0.884200
vn 0.000000 -0.818900 -0.573900
vn -0.090600 -0.458200 0.884200
vn 0.985700 0.118400 0.119800
vn 0.000000 0.462500 0.886600
vn -0.999700 -0.018700 -0.013100
vn 0.000000 0.818900 0.573900
vn 0.999700 -0.018700 -0.013100
vn 0.991300 0.107700 0.075500
vn 0.000000 0.173600 0.984800
vn 0.000000 -0.805000 -0.593300
vn -0.985700 0.118400 0.119800
vn -0.999600 -0.020700 -0.020900
vn 0.999600 -0.020700 -0.020900
usemtl Material
s off
f 52//27 39//27 41//27 42//27
f 90//28 31//28 24//28 84//28
f 89//29 33//29 25//29 85//29
f 88//30 34//30 26//30 86//30
f 87//31 35//31 30//31 86//31
f 83//32 27//32 35//32 87//32
f 85//33 25//33 34//33 88//33
f 84//34 24//34 33//34 89//34
f 83//35 23//35 31//35 90//35
f 53//36 51//36 45//36 46//36
f 39//37 50//37 48//37 41//37
f 51//38 52//38 42//38 45//38
f 35//39 27//39 38//39 40//39
f 37//40 40//40 38//40 28//40
f 35//41 40//41 36//41 30//41
f 29//42 36//42 40//42 37//42
f 49//43 47//43 46//43 45//43
f 41//44 49//44 45//44 42//44
f 48//45 43//45 49//45 41//45
f 43//46 44//46 47//46 49//46
f 54//47 53//47 46//47 47//47
f 50//48 55//48 43//48 48//48
f 56//49 54//49 47//49 44//49
f 55//50 56//50 44//50 43//50
f 64//51 61//51 56//51 55//51
f 61//52 60//52 54//52 56//52
f 62//53 64//53 55//53 50//53
f 60//54 59//54 53//54 54//54
f 58//55 63//55 52//55 51//55
f 57//56 62//56 50//56 39//56
f 59//57 58//57 51//57 53//57
f 63//58 57//58 39//58 52//58
f 25//59 33//59 58//59 59//59
f 33//60 24//60 63//60 58//60
f 23//61 32//61 64//61 62//61
f 32//62 26//62 61//62 64//62
f 94//63 93//63 76//63 73//63
f 61//64 26//64 60//64
f 25//65 59//65 60//65
f 63//66 24//66 57//66
f 62//67 57//67 23//67
f 92//68 91//68 74//68 81//68
f 25//69 60//69 70//69
f 68//70 67//70 60//70
f 67//71 70//71 60//71
f 100//72 99//72 71//72 72//72
f 60//73 26//73 68//73
f 97//74 98//74 77//74 75//74
f 80//75 73//75 104//75 106//75
f 72//76 71//76 107//76 108//76
f 74//77 73//77 80//77 81//77
f 71//78 75//78 77//78 78//78
f 98//79 101//79 78//79 77//79
f 99//80 97//80 75//80 71//80
f 96//81 95//81 80//81 82//81
f 101//82 102//82 79//82 78//82
f 93//83 96//83 82//83 76//83
f 102//84 100//84 72//84 79//84
f 95//85 92//85 81//85 80//85
f 91//86 94//86 73//86 74//86
f 23//87 57//87 69//87
f 65//88 69//88 57//88
f 66//89 65//89 57//89
f 57//90 24//90 66//90
f 27//91 83//91 90//91 38//91
f 28//92 84//92 89//92 37//92
f 29//93 85//93 88//93 36//93
f 23//94 83//94 87//94 32//94
f 32//95 87//95 86//95 26//95
f 36//96 88//96 86//96 30//96
f 37//97 89//97 85//97 29//97
f 38//98 90//98 84//98 28//98
f 26//99 34//99 94//99 91//99
f 67//100 68//100 92//100 95//100
f 25//101 70//101 96//101 93//101
f 70//102 67//102 95//102 96//102
f 68//103 26//103 91//103 92//103
f 34//104 25//104 93//104 94//104
f 66//105 24//105 100//105 102//105
f 65//106 66//106 102//106 101//106
f 31//107 23//107 97//107 99//107
f 69//108 65//108 101//108 98//108
f 23//109 69//109 98//109 97//109
f 24//110 31//110 99//110 100//110
f 105//111 106//111 114//111 113//111
f 73//112 76//112 103//112 104//112
f 76//113 82//113 105//113 103//113
f 82//114 80//114 106//114 105//114
f 106//115 104//115 112//115 114//115
f 71//75 78//75 109//75 107//75
f 78//116 79//116 110//116 109//116
f 79//113 72//113 108//113 110//113
f 117//117 118//117 126//117 125//117
f 118//118 116//118 124//118 126//118
f 107//115 109//115 117//115 115//115
f 108//119 107//119 115//119 116//119
f 103//120 105//120 113//120 111//120
f 110//120 108//120 116//120 118//120
f 104//121 103//121 111//121 112//121
f 109//122 110//122 118//122 117//122
f 120//123 119//123 121//123 122//123
f 124//123 123//123 125//123 126//123
f 114//124 112//124 120//124 122//124
f 113//125 114//125 122//125 121//125
f 115//124 117//124 125//124 123//124
f 116//126 115//126 123//126 124//126
f 111//118 113//118 121//118 119//118
f 112//127 111//127 119//127 120//127
