# Blender v2.78 (sub 0) OBJ File: 'fire.blend'
# www.blender.org
mtllib fire.mtl
o Cube.002
v -1.700832 -0.048194 -0.627231
v 0.438248 -0.003901 1.078941
v -0.899256 0.027415 1.125930
v -1.738791 0.027415 0.237455
v 0.356397 4.739670 0.344391
v 0.616993 1.557233 0.819013
v 0.109480 1.568057 0.925887
v -0.004724 1.599255 0.293224
v 0.097282 2.797199 0.240670
v 0.265350 1.369614 -1.079885
v 0.475615 1.108126 0.800941
v -0.231419 1.004103 0.682635
v -0.390413 1.428448 -0.533331
v -2.017312 1.631296 0.543939
v -2.017312 1.631296 0.437373
v -2.162219 2.469696 0.169155
v -1.301695 2.891708 -1.189989
v -0.938335 2.764242 -1.227434
v -1.396378 2.430257 -1.607160
v -1.719221 4.301764 -1.787951
v 1.903135 -0.056852 -1.292884
v -1.163583 -0.059449 -1.659632
v 0.909001 2.174661 -0.740028
v 1.719956 1.613011 -1.400943
v 1.196357 1.692101 -1.325914
v 1.615814 1.659520 -1.058002
v 1.057861 3.584791 -1.094271
v 0.433467 2.488161 0.835257
vn -0.0227 -0.9995 0.0214
vn -0.7420 0.6642 -0.0907
vn -0.8743 0.4508 0.1800
vn 0.2029 -0.1030 0.9738
vn -0.7439 0.3197 0.5868
vn -0.9792 0.0913 0.1813
vn 0.9908 -0.0632 -0.1196
vn -0.1949 0.2440 0.9500
vn 0.0765 0.4179 0.9053
vn -0.5127 -0.3407 -0.7881
vn -0.5106 0.0185 -0.8596
vn -0.7039 -0.2493 0.6651
vn -0.0004 -0.9999 0.0107
vn 0.0737 -0.4373 0.8963
vn 0.0558 -0.3730 -0.9261
vn 0.1901 0.2641 0.9456
vn 0.1187 0.0292 -0.9925
vn -0.8177 -0.2846 0.5004
vn 0.2431 0.4388 0.8651
vn 0.6239 0.0322 -0.7809
vn -0.9281 -0.1263 0.3503
vn 0.3670 0.7983 -0.4775
vn 0.6762 0.1212 0.7267
vn 0.9299 0.2741 0.2452
vn 0.4620 0.3108 -0.8306
vn -0.7956 0.4802 0.3693
vn 0.8276 0.2434 0.5057
vn -0.0472 -0.9953 0.0850
vn -0.8214 0.4965 0.2807
vn -0.1066 -0.3388 0.9348
vn 0.8935 0.1833 -0.4099
vn 0.0414 0.3893 0.9202
vn 0.0609 0.3777 0.9239
vn -0.9853 -0.1711 -0.0000
vn 0.5556 0.8049 0.2083
vn -0.9854 -0.1703 -0.0000
vn 0.0019 -0.9997 0.0235
vn -0.6014 0.7316 -0.3210
vn 0.5428 0.6012 0.5865
vn -0.1533 -0.0806 -0.9849
vn -0.4775 0.3732 0.7955
vn -0.1244 0.1116 -0.9859
vn -0.3646 0.6231 -0.6920
vn -0.6099 -0.7886 -0.0783
vn 0.2065 0.0236 0.9782
vn -0.5407 -0.1411 0.8293
vn 0.6398 -0.0880 -0.7635
vn 0.6300 -0.1678 -0.7583
vn -0.0584 0.9827 -0.1758
vn 0.7044 0.7095 0.0199
usemtl Material.002
s off
f 2//1 3//1 4//1
f 1//2 4//2 13//2
f 12//3 7//3 8//3
f 11//4 6//4 7//4
f 9//5 7//5 28//5
f 7//6 9//6 8//6
f 10//7 11//7 2//7
f 2//8 11//8 12//8
f 12//9 16//9 14//9
f 16//10 13//10 15//10
f 13//11 4//11 15//11
f 4//12 3//12 14//12
f 1//13 22//13 21//13
f 10//14 23//14 22//14
f 10//15 1//15 19//15
f 10//16 18//16 17//16
f 21//17 22//17 25//17
f 13//18 17//18 19//18
f 17//19 18//19 20//19
f 18//20 19//20 20//20
f 19//21 17//21 20//21
f 23//22 26//22 25//22
f 23//23 21//23 24//23
f 26//24 24//24 27//24
f 18//25 10//25 19//25
f 10//26 2//26 23//26
f 21//27 23//27 2//27
f 1//28 2//28 4//28
f 13//29 12//29 8//29
f 12//30 11//30 7//30
f 6//31 9//31 28//31
f 3//32 2//32 12//32
f 3//33 12//33 14//33
f 15//34 4//34 14//34
f 12//35 13//35 16//35
f 15//36 14//36 16//36
f 2//37 1//37 21//37
f 1//38 10//38 22//38
f 13//39 10//39 17//39
f 24//40 21//40 25//40
f 1//41 13//41 19//41
f 24//42 25//42 27//42
f 22//43 23//43 25//43
f 26//44 23//44 24//44
f 7//45 6//45 28//45
f 25//46 26//46 27//46
f 9//47 6//47 8//47
f 6//48 11//48 8//48
f 13//49 8//49 10//49
f 10//50 8//50 11//50
o Cube.001
v -1.845948 -0.038343 -0.941065
v 0.714501 0.055724 0.606642
v -0.929686 0.015757 1.305633
v -1.000000 0.027415 0.783153
v 0.422999 2.495536 -0.435258
v 0.718202 4.814740 0.479953
v 0.308431 1.523795 -0.325833
v 0.309893 1.670219 0.063178
v 0.009108 1.582945 0.041550
v 0.058462 1.979423 -0.457676
v -0.048181 2.037416 0.242734
v -0.151544 1.995695 -0.267555
v -0.249826 0.808740 -0.911353
v 0.475615 1.108126 0.800941
v -0.231419 1.004103 0.682635
v -1.103389 1.545293 -0.409320
v -1.025946 1.999915 1.036290
v -0.710630 1.788878 -1.135718
v 2.165229 0.039476 -1.205030
v -1.069687 -0.038340 -1.759635
v 0.760196 1.057384 -0.510550
v 1.237288 1.380941 -0.772372
v 0.886700 1.528891 -1.117908
v 1.039633 1.612584 -0.632549
v 0.905658 2.864186 -1.465953
v -2.029852 0.733240 -0.371094
v -1.701691 0.767026 0.360400
v -1.747889 1.445266 -0.172438
v -2.596457 1.958679 0.193413
v 0.776921 5.079241 0.333567
v 0.932905 5.009396 0.459955
v 0.781878 5.030963 0.620309
v 0.727246 5.073891 0.420824
v 0.443483 6.053648 0.410526
v -2.578602 2.712651 -0.788314
v -2.083638 3.051150 -0.622916
v -1.943909 3.039764 -1.426181
v -2.426573 5.004863 -1.161179
vn 0.0140 -0.9996 -0.0242
vn -0.4180 0.4395 -0.7950
vn -0.6435 0.7624 0.0680
vn -0.5831 0.4415 -0.6819
vn -0.6995 -0.5243 -0.4855
vn 0.9789 0.1899 -0.0752
vn -0.9539 -0.2135 0.2107
vn 0.8675 0.2736 -0.4154
vn -0.1314 -0.2088 0.9691
vn 0.0562 0.6059 -0.7935
vn -0.9907 -0.0301 0.1327
vn 0.0207 -0.9996 0.0196
vn -0.3914 0.7646 0.5120
vn 0.1612 0.1949 -0.9675
vn -0.2557 -0.1584 -0.9537
vn 0.1098 -0.1725 -0.9789
vn -0.8598 0.4743 0.1891
vn 0.4628 0.0344 0.8858
vn 0.7921 0.3948 0.4656
vn -0.9543 0.0880 0.2855
vn -0.4076 0.6881 0.6003
vn 0.6547 0.5493 0.5193
vn 0.0194 -0.9994 0.0286
vn -0.5488 -0.6274 -0.5525
vn -0.2648 0.7630 0.5896
vn 0.8548 -0.4328 -0.2865
vn 0.3676 0.2960 0.8816
vn 0.5427 0.1388 0.8284
vn 0.0234 0.9898 -0.1403
vn 0.0211 -0.9994 0.0259
vn -0.4235 0.8120 -0.4016
vn 0.7096 0.4565 0.5367
vn 0.6742 0.6036 -0.4256
vn 0.6430 -0.2017 -0.7388
vn -0.5501 0.7934 -0.2606
vn 0.5175 -0.0731 0.8526
vn -0.9980 -0.0208 0.0600
vn 0.7137 0.6563 -0.2446
vn 0.1863 0.6148 0.7664
vn -0.7768 -0.4934 0.3914
vn -0.1951 0.3345 -0.9220
vn 0.5845 0.5255 0.6182
vn -0.7674 -0.5246 0.3685
vn 0.7031 0.3586 0.6140
vn 0.6773 0.2853 -0.6782
vn -0.9417 -0.2707 0.1997
vn -0.8355 -0.2471 -0.4908
vn 0.3916 -0.5106 -0.7655
vn 0.5642 -0.5600 0.6067
vn -0.8638 -0.0832 -0.4969
vn -0.9543 0.0977 0.2824
vn 0.6647 0.3174 0.6764
vn 0.6712 -0.4484 -0.5902
vn -0.2638 0.7631 0.5900
vn 0.8840 0.4365 -0.1676
vn -0.2149 0.7530 0.6220
vn 0.0499 -0.3990 0.9156
vn -0.3365 -0.1220 0.9338
vn 0.7022 0.6259 0.3394
vn -0.6884 -0.0718 -0.7218
vn -0.4165 0.1728 0.8926
vn 0.9628 0.2143 0.1644
usemtl Material
s off
f 30//51 31//51 32//51
f 44//52 29//52 54//52 56//52
f 39//53 33//53 40//53
f 38//54 40//54 33//54
f 38//55 35//55 37//55
f 35//56 36//56 42//56
f 39//57 40//57 37//57
f 41//58 42//58 30//58
f 30//59 42//59 43//59
f 35//60 41//60 44//60
f 32//61 31//61 45//61
f 29//62 48//62 47//62
f 41//63 49//63 51//63
f 47//64 48//64 51//64
f 46//65 29//65 63//65 65//65
f 41//66 29//66 46//66
f 49//67 52//67 51//67
f 49//68 47//68 50//68
f 52//69 50//69 53//69
f 51//70 52//70 53//70
f 41//71 30//71 49//71
f 47//72 49//72 30//72
f 29//73 30//73 32//73
f 40//74 38//74 37//74
f 44//75 43//75 37//75
f 41//76 35//76 42//76
f 31//77 30//77 43//77
f 31//78 43//78 45//78
f 37//79 35//79 44//79
f 30//80 29//80 47//80
f 29//81 41//81 48//81
f 44//82 41//82 46//82
f 50//83 47//83 51//83
f 50//84 51//84 53//84
f 51//85 48//85 41//85
f 52//86 49//86 50//86
f 44//87 32//87 45//87
f 43//88 44//88 45//88
f 32//89 44//89 56//89 55//89
f 29//90 32//90 55//90 54//90
f 56//91 54//91 57//91
f 55//92 56//92 57//92
f 54//93 55//93 57//93
f 60//94 59//94 62//94
f 59//95 58//95 62//95
f 61//96 60//96 62//96
f 58//97 61//97 62//97
f 58//98 59//98 34//98
f 59//99 60//99 34//99
f 61//100 58//100 34//100
f 60//101 61//101 34//101
f 36//102 33//102 39//102
f 36//103 38//103 33//103
f 43//104 36//104 37//104
f 35//105 38//105 36//105
f 43//106 42//106 36//106
f 36//107 39//107 37//107
f 29//108 44//108 64//108 63//108
f 44//109 46//109 65//109 64//109
f 65//110 63//110 66//110
f 63//111 64//111 66//111
f 64//112 65//112 66//112
o Cube
v -1.734413 -0.048194 -0.853905
v 1.369100 -0.001963 1.112195
v -1.000000 0.027415 1.000000
v -1.000000 0.027415 0.783153
v 0.818777 3.205925 0.570133
v 0.874738 3.091547 0.877795
v 0.531965 3.127662 0.915309
v 0.670714 3.198010 0.623259
v 0.356397 4.739670 0.344391
v 0.455996 1.603195 0.167584
v 0.616993 1.557233 0.819013
v 0.109480 1.568057 0.925887
v -0.004724 1.599255 0.293224
v 0.285314 2.075985 -0.018969
v 0.312096 2.012271 0.484991
v -0.211954 2.012271 0.484991
v 0.003671 2.060093 0.011664
v 0.329994 1.194216 -0.950578
v 0.475615 1.108126 0.800941
v -0.231419 1.004103 0.682635
v -0.390413 1.428448 -0.533331
v -1.419492 1.641010 0.762304
v -1.419492 1.641010 0.655738
v -1.041783 2.120988 0.606340
v -1.280458 2.397925 0.066660
v -1.999175 2.286495 0.604557
v -1.999175 2.286495 0.532593
v -1.744112 2.610621 0.499235
v -1.696308 2.592775 0.245556
v -2.218884 2.613802 0.504775
v -2.218884 2.613802 0.463153
v -2.071360 2.801270 0.443859
v -2.043711 2.790948 0.297136
v -2.241482 3.107275 0.471833
v -1.310630 3.240581 0.536603
v -0.794559 2.777982 0.078846
v -0.861855 3.004626 0.669496
v -1.262826 3.222734 0.282923
v -1.121500 4.105940 0.518957
v -0.889845 4.004901 0.483539
v -0.933261 4.070225 0.223118
v -1.150818 4.150053 0.343097
v -0.687804 4.586580 0.335077
v 0.323070 2.331682 -1.370359
v 0.686431 2.204216 -1.407804
v 0.228388 1.870231 -1.787531
v -0.375445 3.608756 -2.044968
v 1.575716 -0.056852 -1.385232
v -1.251731 -0.054565 -1.836911
v 0.991673 0.881696 -0.828596
v 1.923180 1.455747 -1.476096
v 1.399581 1.534837 -1.401067
v 1.819037 1.502255 -1.133156
v 1.428516 2.833549 -1.351930
v 0.931238 2.899439 -1.166419
v 1.398120 3.032042 -1.051441
v 1.146754 3.815919 -1.791349
v 0.937303 2.815553 -0.853273
v 0.991457 2.551407 -0.761269
v 1.030866 2.838025 -0.839395
v 0.546314 3.233202 -0.599130
v 0.338509 2.593738 1.126796
vn -0.0124 -0.9999 -0.0000
vn 0.9169 -0.2898 -0.2745
vn 0.0590 -0.3933 0.9175
vn -0.7803 0.5814 -0.2307
vn -0.7367 0.6048 0.3025
vn 0.1379 0.3440 0.9288
vn 0.9579 0.2784 -0.0707
vn -0.8475 -0.2568 -0.4645
vn -0.3176 -0.2311 -0.9196
vn -0.2343 -0.4288 -0.8725
vn -0.8743 0.4508 0.1800
vn 0.2029 -0.1030 0.9738
vn 0.9267 -0.2817 -0.2489
vn -0.1213 0.5241 -0.8430
vn -0.8735 -0.2422 -0.4224
vn 0.0000 0.7044 0.7098
vn 0.9415 0.3370 -0.0074
vn 0.7833 0.6207 -0.0346
vn -0.1818 0.1270 0.9751
vn 0.1644 0.1854 0.9688
vn 0.0990 0.9309 -0.3516
vn 0.5188 -0.6454 -0.5606
vn -0.7544 -0.2442 -0.6093
vn -0.9678 -0.2516 -0.0000
vn 0.7415 0.6707 0.0162
vn -0.3632 -0.4202 -0.8316
vn 0.0459 0.2759 0.9601
vn -0.4099 -0.5121 -0.7548
vn -0.7440 -0.6682 -0.0000
vn -0.4482 0.1117 -0.8870
vn -0.8303 -0.5573 0.0000
vn 0.4989 0.8660 0.0331
vn 0.0131 0.2996 0.9540
vn -0.0017 -1.0000 0.0056
vn -0.8033 0.5641 -0.1911
vn -0.1744 -0.0348 0.9841
vn -0.2819 0.2490 -0.9266
vn 0.9923 0.0981 0.0754
vn -0.9990 -0.0457 0.0000
vn 0.8715 0.4725 0.1310
vn 0.2953 0.0771 0.9523
vn -0.6781 -0.0181 -0.7348
vn -0.9590 0.2056 -0.1952
vn -0.1944 0.1740 0.9654
vn 0.2975 0.2727 -0.9150
vn 0.3887 -0.6931 -0.6070
vn 0.2135 0.3394 0.9161
vn 0.1577 0.0076 -0.9874
vn -0.8619 0.4257 -0.2753
vn -0.6550 0.6999 0.2848
vn 0.2204 0.1686 0.9607
vn 0.8955 -0.3730 -0.2429
vn -0.3487 0.3539 -0.8678
vn 0.2777 0.5631 0.7783
vn 0.5964 0.0890 -0.7977
vn -0.8612 -0.2321 0.4522
vn -0.3442 0.0432 -0.9379
vn -0.3267 0.7301 0.6002
vn 0.6058 -0.0917 0.7903
vn -0.2614 0.9311 0.2545
vn -0.5388 -0.1921 0.8202
vn 0.9208 0.3092 0.2377
vn -0.9451 -0.3037 -0.1204
vn 0.4160 0.1855 0.8902
vn -0.3628 -0.4652 -0.8074
vn -0.3465 0.5827 0.7351
vn 0.9666 0.2478 -0.0659
vn 0.0015 0.5209 -0.8536
vn -0.7441 -0.3506 -0.5686
vn 0.5361 0.1526 0.8302
vn 0.7404 -0.4761 -0.4744
vn 0.3527 0.8756 0.3301
vn 0.8632 0.5013 0.0604
vn -0.0200 -0.9983 0.0551
vn 0.8969 -0.4304 -0.1021
vn -0.0000 -0.3420 0.9397
vn -0.7459 0.6050 -0.2787
vn -0.0634 -0.5195 -0.8521
vn -0.8214 0.4965 0.2807
vn -0.1066 -0.3388 0.9348
vn 0.9938 -0.0708 -0.0861
vn -0.3079 0.5501 -0.7763
vn -0.8604 -0.4925 0.1310
vn 0.8737 0.4502 -0.1842
vn -0.0404 0.3374 0.9405
vn -0.0566 0.9826 -0.1767
vn 0.9594 -0.2089 0.1895
vn -0.7440 -0.3199 -0.5867
vn 0.8020 0.5888 0.1006
vn -0.4891 -0.2879 -0.8233
vn -0.3439 0.0676 -0.9366
vn 0.0009 -0.9998 0.0220
vn -0.2325 0.1026 0.9672
vn -0.1742 0.2532 -0.9516
vn 0.9863 -0.0031 -0.1652
vn -0.9762 0.1056 0.1893
vn 0.1461 -0.0118 0.9892
vn -0.5074 0.8233 -0.2545
vn 0.5487 0.2924 0.7832
vn -0.1456 -0.0260 -0.9890
vn -0.7219 0.6822 -0.1159
vn -0.1357 0.0405 -0.9899
vn -0.5105 0.7246 0.4630
vn 0.6403 -0.7109 0.2909
vn -0.3239 0.9071 0.2690
vn 0.9600 0.2684 -0.0802
vn -0.9762 -0.2135 -0.0383
vn 0.6935 -0.1632 0.7017
vn -0.9505 0.2487 -0.1862
vn 0.8773 0.3371 -0.3415
vn 0.1958 -0.2304 0.9532
usemtl Material.001
s off
f 68//113 69//113 70//113
f 80//114 71//114 72//114
f 72//115 73//115 82//115
f 73//116 74//116 83//116
f 67//117 70//117 87//117
f 73//118 72//118 75//118
f 72//119 71//119 75//119
f 74//120 73//120 75//120
f 71//121 74//121 75//121
f 80//122 76//122 79//122
f 86//123 78//123 79//123
f 85//124 77//124 78//124
f 76//125 77//125 85//125
f 80//126 83//126 74//126
f 82//127 83//127 79//127
f 81//128 82//128 78//128
f 76//129 80//129 81//129
f 84//130 85//130 68//130
f 68//131 85//131 86//131
f 86//132 90//132 88//132
f 76//133 84//133 87//133
f 90//134 91//134 102//134
f 87//135 70//135 89//135
f 70//136 69//136 88//136
f 87//137 91//137 90//137
f 93//138 97//138 99//138
f 90//139 94//139 92//139
f 91//140 89//140 93//140
f 89//141 88//141 92//141
f 104//142 108//142 107//142
f 93//143 92//143 96//143
f 94//144 95//144 99//144
f 94//145 98//145 96//145
f 67//146 115//146 114//146
f 94//147 101//147 104//147
f 94//148 90//148 103//148
f 91//149 95//149 104//149
f 103//150 102//150 107//150
f 97//151 96//151 100//151
f 98//152 99//152 100//152
f 96//153 98//153 100//153
f 99//154 97//154 100//154
f 104//155 101//155 105//155
f 101//156 103//156 106//156
f 84//157 116//157 115//157
f 84//158 67//158 112//158
f 84//159 111//159 110//159
f 114//160 115//160 118//160
f 87//161 110//161 112//161
f 108//162 105//162 109//162
f 105//163 106//163 109//163
f 106//164 107//164 109//164
f 107//165 108//165 109//165
f 110//166 111//166 113//166
f 111//167 112//167 113//167
f 112//168 110//168 113//168
f 118//169 121//169 120//169
f 116//170 119//170 118//170
f 116//171 114//171 117//171
f 121//172 124//172 126//172
f 118//173 119//173 122//173
f 119//174 117//174 120//174
f 121//175 118//175 125//175
f 122//176 126//176 125//176
f 120//177 121//177 123//177
f 121//178 122//178 123//178
f 122//179 120//179 123//179
f 126//180 124//180 127//180
f 124//181 125//181 127//181
f 125//182 126//182 127//182
f 111//183 84//183 112//183
f 84//184 68//184 116//184
f 114//185 116//185 68//185
f 67//186 68//186 70//186
f 81//187 80//187 72//187
f 81//188 72//188 82//188
f 82//189 73//189 83//189
f 83//190 80//190 79//190
f 87//191 86//191 79//191
f 86//192 85//192 78//192
f 84//193 76//193 85//193
f 71//194 80//194 74//194
f 78//195 82//195 79//195
f 77//196 76//196 81//196
f 69//197 68//197 86//197
f 69//132 86//132 88//132
f 79//198 76//198 87//198
f 103//199 90//199 102//199
f 91//200 87//200 89//200
f 89//136 70//136 88//136
f 86//201 87//201 90//201
f 95//138 93//138 99//138
f 88//139 90//139 92//139
f 95//202 91//202 93//202
f 93//141 89//141 92//141
f 102//203 104//203 107//203
f 97//143 93//143 96//143
f 98//144 94//144 99//144
f 92//145 94//145 96//145
f 68//204 67//204 114//204
f 95//147 94//147 104//147
f 101//205 94//205 103//205
f 102//206 91//206 104//206
f 106//207 103//207 107//207
f 108//208 104//208 105//208
f 105//209 101//209 106//209
f 67//210 84//210 115//210
f 87//211 84//211 110//211
f 117//212 114//212 118//212
f 67//213 87//213 112//213
f 117//214 118//214 120//214
f 115//215 116//215 118//215
f 119//216 116//216 117//216
f 122//217 121//217 126//217
f 122//218 119//218 120//218
f 124//219 121//219 125//219
f 118//220 122//220 125//220
f 81//221 78//221 128//221
f 77//222 81//222 128//222
f 78//223 77//223 128//223
