# Blender v2.75 (sub 0) OBJ File: 'worldtree.blend'
# www.blender.org
mtllib worldtree.mtl
o Cube.001
v 5.607323 10.614660 -0.423616
v 1.077547 9.432208 -0.423618
v 0.747312 9.432208 0.301299
v 0.022396 9.432208 -1.478769
v -0.702521 9.432208 -1.148535
v 0.022395 9.432208 0.631533
v -0.702521 9.432208 0.301298
v -1.032755 9.432208 -0.423619
v 0.747313 9.432208 -1.148535
v 5.737501 17.086533 -6.138719
v 3.859386 10.614660 3.413375
v 0.022398 10.614660 -6.008545
v -3.814596 10.614660 -4.260612
v 0.022393 10.614660 5.161307
v -3.814598 10.614660 3.413372
v -5.562531 10.614660 -0.423620
v 3.859390 10.614660 -4.260610
v 6.386404 13.745584 -6.787621
v -9.240718 13.745584 -0.423621
v -6.341609 13.745584 5.940382
v 0.022392 13.745584 8.839495
v -6.341607 13.745584 -6.787624
v 0.022399 13.745584 -9.686731
v 6.386397 13.745584 5.940387
v 9.285510 13.745584 -0.423615
v -8.296209 17.086533 -0.423621
v -5.692707 17.086533 5.291480
v 0.022392 17.086533 7.894986
v -5.692705 17.086533 -6.138722
v 0.022399 17.086533 -8.742223
v 5.737495 17.086533 5.291485
v 8.341002 17.086533 -0.423615
v 2.997484 20.487135 -3.398703
v -4.307985 20.487135 -0.423620
v -2.952692 20.487135 2.551466
v 0.022394 20.487135 3.906762
v -2.952690 20.487135 -3.398705
v 0.022397 20.487135 -4.753999
v 2.997480 20.487135 2.551469
v 4.352777 20.487135 -0.423617
v 0.022396 21.475510 -0.423618
v 3.274293 7.890402 4.277596
v 1.972035 7.254994 4.483552
v 1.888813 4.444464 4.278016
v 3.274293 4.592160 4.277596
v 3.236816 7.437279 3.237299
v 2.683961 5.558609 2.200052
v 2.761804 4.420835 3.005975
v 4.366066 7.254421 3.417868
v 5.151025 5.832498 3.206453
v 4.628390 4.833681 3.424758
v 4.444555 7.559887 4.764324
v 4.997769 5.974731 5.798078
v 4.409464 4.555048 5.412339
v 2.745678 7.559887 5.904507
v 2.177681 5.847980 6.403080
v 2.493762 4.345711 5.919487
v 1.349941 5.849253 4.277596
v 3.276932 7.157279 -6.225286
v 1.160460 6.342710 -4.920183
v 1.216010 6.332286 -4.478569
v 0.350084 6.305352 -5.113699
v 0.102510 6.280954 -4.744470
v 0.968437 6.307889 -4.109338
v 0.527336 6.282697 -4.054447
v 0.158061 6.270530 -4.302855
v 0.791185 6.330544 -5.168591
v 1.471577 10.765219 -8.873924
v 3.570961 7.102105 -3.887813
v -1.012400 6.959543 -7.249569
v -2.322808 6.830406 -5.295234
v 2.260553 6.972967 -1.933477
v -0.074202 6.839628 -1.642937
v -2.028778 6.775232 -2.957761
v 1.322356 7.092882 -7.540111
v 1.689077 8.922874 -9.429079
v -3.869087 8.396021 -1.828832
v -0.627243 8.502829 0.351923
v 3.245162 8.723984 -0.129963
v -4.356762 8.487533 -5.705745
v -2.183330 8.701719 -8.947192
v 5.418595 8.938170 -3.371411
v 4.930921 9.029682 -7.248323
v -3.519853 10.292086 -2.048633
v -0.608562 10.388004 -0.090238
v 2.868996 10.586609 -0.522988
v -3.957802 10.374266 -5.530238
v -2.005983 10.566612 -8.441172
v 4.820815 10.778955 -3.433923
v 4.382867 10.861135 -6.915529
v 0.871747 12.571833 -6.710819
v -1.726620 12.325535 -3.157805
v -0.211102 12.375465 -2.138331
v 1.599196 12.478853 -2.363607
v -1.954602 12.368315 -4.970210
v -0.938552 12.468443 -6.485543
v 2.615246 12.578981 -3.878939
v 2.387265 12.621761 -5.691345
v 0.300913 13.025017 -4.407861
v -3.597241 6.772131 0.394868
v -4.253295 5.914018 3.927227
v -3.738260 5.917877 4.287456
v -5.223325 5.933710 4.594209
v -5.071133 5.944936 5.203922
v -3.586066 5.929103 4.897171
v -3.946293 5.941772 5.412066
v -4.556098 5.948795 5.564152
v -4.863099 5.921042 4.079312
v -7.979269 11.887732 -0.628895
v -0.871154 6.792559 2.301564
v -8.731624 6.876366 3.925203
v -7.926069 6.935783 7.152431
v -0.065601 6.851976 5.528790
v -1.972281 6.919029 8.254137
v -5.199983 6.956213 9.059125
v -6.824944 6.809313 1.199855
v -8.406794 9.242983 -1.172584
v -5.711651 9.486624 11.862738
v -0.358214 9.424952 10.527589
v 2.804196 9.313742 6.007353
v -10.233112 9.452742 8.700310
v -11.569201 9.354193 3.347655
v 1.468108 9.215191 0.654698
v -3.053355 9.181309 -2.507731
v -5.558934 12.106529 11.077282
v -0.751358 12.051147 9.878274
v 2.088596 11.951277 5.818942
v -9.619370 12.076103 8.237313
v -10.819221 11.987598 3.430440
v 0.888741 11.862774 1.012069
v -3.171693 11.832348 -1.827906
v -6.229120 14.609434 1.836095
v -4.969175 14.723333 7.929933
v -2.466514 14.694500 7.305769
v -0.988133 14.642511 5.192618
v -7.082898 14.707493 6.451540
v -7.707502 14.661423 3.949246
v -1.612735 14.596439 2.690326
v -3.726458 14.580601 1.211932
v -4.342731 15.431637 4.555309
vn 0.250900 -0.961200 0.114300
vn -0.114300 -0.961200 0.250900
vn 0.250900 -0.961200 -0.114300
vn 0.114300 -0.961200 0.250900
vn -0.401500 0.249200 -0.881300
vn -0.621700 -0.730300 0.283200
vn 0.621700 -0.730300 0.283200
vn 0.621700 -0.730300 -0.283200
vn 0.114300 -0.961200 -0.250900
vn -0.250900 -0.961200 0.114300
vn -0.250900 -0.961200 -0.114300
vn -0.114300 -0.961200 -0.250900
vn -0.283200 -0.730300 -0.621700
vn -0.283200 -0.730300 0.621700
vn 0.881300 0.249200 -0.401500
vn -0.881300 0.249200 0.401500
vn 0.283200 -0.730300 0.621700
vn -0.401500 0.249200 0.881300
vn 0.283200 -0.730300 -0.621700
vn -0.621700 -0.730300 -0.283200
vn -0.881300 0.249200 -0.401500
vn 0.881300 0.249200 0.401500
vn 0.401500 0.249200 0.881300
vn 0.401500 0.249200 -0.881300
vn 0.622200 0.729700 0.283400
vn 0.283400 0.729700 -0.622200
vn -0.283400 0.729700 0.622200
vn -0.622200 0.729700 -0.283400
vn -0.622200 0.729700 0.283400
vn 0.283400 0.729700 0.622200
vn 0.622200 0.729700 -0.283400
vn -0.283400 0.729700 -0.622200
vn 0.100900 0.970000 0.221400
vn 0.221400 0.970000 0.100900
vn 0.221400 0.970000 -0.100900
vn 0.100900 0.970000 -0.221400
vn -0.100900 0.970000 -0.221400
vn -0.221400 0.970000 -0.100900
vn -0.221400 0.970000 0.100900
vn -0.100900 0.970000 0.221400
vn 0.342300 -0.463200 -0.817500
vn 0.284700 0.356600 -0.889800
vn 0.905400 -0.420100 0.061100
vn 0.916100 0.400000 -0.028100
vn 0.238200 -0.297300 0.924600
vn 0.320800 0.398000 0.859500
vn -0.797100 -0.349500 -0.492400
vn -0.455200 0.822200 -0.341700
vn 0.105600 -0.990200 0.090900
vn -0.692800 0.458500 -0.556600
vn 0.208200 0.893900 -0.396900
vn 0.205200 -0.977500 0.049000
vn 0.350900 0.908600 -0.226600
vn 0.095500 -0.987200 -0.127900
vn 0.166400 0.954400 0.248000
vn 0.078800 -0.990700 -0.111200
vn -0.889400 -0.316400 0.329900
vn -0.432700 0.900500 0.042400
vn 0.105500 -0.989500 -0.098400
vn -0.860800 0.362100 0.357700
vn 0.324400 -0.943800 -0.063100
vn 0.085600 -0.965900 0.244400
vn 0.204500 -0.944300 -0.257800
vn 0.279900 -0.951900 0.124800
vn -0.816500 0.222200 -0.532800
vn -0.341000 -0.766400 0.544400
vn 0.715700 -0.690300 -0.106300
vn 0.418700 -0.691500 -0.588600
vn 0.016800 -0.953000 -0.302600
vn -0.102200 -0.974500 0.199600
vn -0.222000 -0.975000 0.004900
vn -0.177500 -0.967000 -0.182900
vn -0.527700 -0.747600 -0.403200
vn 0.124100 -0.744900 0.655500
vn 0.525300 0.301800 -0.795600
vn -0.551800 0.195600 0.810700
vn 0.605500 -0.710300 0.359000
vn 0.107600 0.226000 0.968200
vn -0.046400 -0.712900 -0.699700
vn -0.637900 -0.767600 0.062100
vn -0.972800 0.193900 0.126900
vn 0.946200 0.303500 -0.111900
vn 0.790000 0.275200 0.547900
vn -0.134100 0.271400 -0.953100
vn 0.638600 0.767000 -0.062200
vn -0.124200 0.744400 -0.656100
vn 0.046500 0.712400 0.700300
vn -0.716300 0.689700 0.106400
vn -0.419100 0.690900 0.589100
vn 0.528300 0.747000 0.403600
vn 0.341400 0.765800 -0.545000
vn -0.606000 0.709700 -0.359400
vn 0.150100 0.974800 0.165100
vn 0.189400 0.981900 -0.000600
vn 0.083600 0.981500 -0.172400
vn -0.082000 0.973800 -0.212000
vn -0.253400 0.961500 -0.106400
vn -0.292700 0.954400 0.059300
vn -0.186900 0.954800 0.231100
vn -0.021300 0.962400 0.270700
vn 0.151800 -0.966600 -0.206600
vn 0.219700 -0.959300 0.177300
vn -0.073000 -0.965900 -0.248200
vn 0.261300 -0.964100 -0.047500
vn -0.938000 0.259900 0.229300
vn 0.160600 -0.717900 0.677300
vn 0.386800 -0.743900 -0.545000
vn -0.170200 -0.742300 -0.648000
vn -0.232200 -0.962700 -0.138800
vn 0.060500 -0.956100 0.286700
vn -0.164300 -0.955500 0.245100
vn -0.273800 -0.957900 0.086000
vn -0.667500 -0.722500 0.179900
vn 0.555000 -0.726000 0.406200
vn -0.232900 0.231800 -0.944500
vn 0.236100 0.266400 0.934500
vn 0.658000 -0.737800 -0.150700
vn 0.795200 0.255000 0.550100
vn -0.564500 -0.734300 -0.376900
vn -0.396300 -0.716400 0.574300
vn -0.553400 0.268600 0.788400
vn 0.556700 0.229600 -0.798400
vn 0.941200 0.238300 -0.239300
vn -0.792000 0.243200 -0.560100
vn 0.396600 0.715800 -0.574700
vn -0.555500 0.725400 -0.406500
vn 0.565000 0.733800 0.377300
vn -0.387100 0.743300 0.545500
vn 0.170300 0.741800 0.648700
vn 0.668100 0.721900 -0.180100
vn -0.160800 0.717400 -0.677900
vn -0.658600 0.737200 0.150800
vn 0.242400 0.967000 -0.078300
vn 0.145800 0.964800 -0.218700
vn -0.052600 0.965400 -0.255400
vn -0.193000 0.968200 -0.158900
vn -0.229700 0.972500 0.039400
vn -0.133100 0.974600 0.179900
vn 0.065200 0.974100 0.216600
vn 0.205700 0.971200 0.120000
usemtl Material
s off
f 3//1 2//1 1//1 11//1
f 7//2 6//2 14//2 15//2
f 2//3 9//3 17//3 1//3
f 6//4 3//4 11//4 14//4
f 23//5 22//5 29//5 30//5
f 16//6 15//6 20//6 19//6
f 11//7 1//7 25//7 24//7
f 1//8 17//8 18//8 25//8
f 9//9 4//9 12//9 17//9
f 8//10 7//10 15//10 16//10
f 5//11 8//11 16//11 13//11
f 4//12 5//12 13//12 12//12
f 12//13 13//13 22//13 23//13
f 15//14 14//14 21//14 20//14
f 25//15 18//15 10//15 32//15
f 19//16 20//16 27//16 26//16
f 14//17 11//17 24//17 21//17
f 20//18 21//18 28//18 27//18
f 17//19 12//19 23//19 18//19
f 13//20 16//20 19//20 22//20
f 22//21 19//21 26//21 29//21
f 24//22 25//22 32//22 31//22
f 21//23 24//23 31//23 28//23
f 18//24 23//24 30//24 10//24
f 31//25 32//25 40//25 39//25
f 10//26 30//26 38//26 33//26
f 27//27 28//27 36//27 35//27
f 29//28 26//28 34//28 37//28
f 26//29 27//29 35//29 34//29
f 28//30 31//30 39//30 36//30
f 32//31 10//31 33//31 40//31
f 30//32 29//32 37//32 38//32
f 36//33 39//33 41//33
f 39//34 40//34 41//34
f 40//35 33//35 41//35
f 38//36 41//36 33//36
f 38//37 37//37 41//37
f 37//38 34//38 41//38
f 34//39 35//39 41//39
f 35//40 36//40 41//40
f 48//41 47//41 50//41 51//41
f 47//42 46//42 49//42 50//42
f 51//43 50//43 53//43 54//43
f 50//44 49//44 52//44 53//44
f 54//45 53//45 56//45 57//45
f 53//46 52//46 55//46 56//46
f 44//47 58//47 47//47 48//47
f 43//48 42//48 46//48
f 45//49 44//49 48//49
f 58//50 43//50 46//50 47//50
f 46//51 42//51 49//51
f 45//52 48//52 51//52
f 49//53 42//53 52//53
f 45//54 51//54 54//54
f 52//55 42//55 55//55
f 45//56 54//56 57//56
f 57//57 56//57 58//57 44//57
f 55//58 42//58 43//58
f 45//59 57//59 44//59
f 56//60 55//60 43//60 58//60
f 61//61 60//61 59//61 69//61
f 65//62 64//62 72//62 73//62
f 60//63 67//63 75//63 59//63
f 64//64 61//64 69//64 72//64
f 81//65 80//65 87//65 88//65
f 74//66 73//66 78//66 77//66
f 69//67 59//67 83//67 82//67
f 59//68 75//68 76//68 83//68
f 67//69 62//69 70//69 75//69
f 66//70 65//70 73//70 74//70
f 63//71 66//71 74//71 71//71
f 62//72 63//72 71//72 70//72
f 70//73 71//73 80//73 81//73
f 73//74 72//74 79//74 78//74
f 83//75 76//75 68//75 90//75
f 77//76 78//76 85//76 84//76
f 72//77 69//77 82//77 79//77
f 78//78 79//78 86//78 85//78
f 75//79 70//79 81//79 76//79
f 71//80 74//80 77//80 80//80
f 80//81 77//81 84//81 87//81
f 82//82 83//82 90//82 89//82
f 79//83 82//83 89//83 86//83
f 76//84 81//84 88//84 68//84
f 89//85 90//85 98//85 97//85
f 68//86 88//86 96//86 91//86
f 85//87 86//87 94//87 93//87
f 87//88 84//88 92//88 95//88
f 84//89 85//89 93//89 92//89
f 86//90 89//90 97//90 94//90
f 90//91 68//91 91//91 98//91
f 88//92 87//92 95//92 96//92
f 94//93 97//93 99//93
f 97//94 98//94 99//94
f 98//95 91//95 99//95
f 96//96 99//96 91//96
f 96//97 95//97 99//97
f 95//98 92//98 99//98
f 92//99 93//99 99//99
f 93//100 94//100 99//100
f 102//101 101//101 100//101 110//101
f 106//102 105//102 113//102 114//102
f 101//103 108//103 116//103 100//103
f 105//104 102//104 110//104 113//104
f 122//105 121//105 128//105 129//105
f 115//106 114//106 119//106 118//106
f 110//107 100//107 124//107 123//107
f 100//108 116//108 117//108 124//108
f 108//109 103//109 111//109 116//109
f 107//110 106//110 114//110 115//110
f 104//111 107//111 115//111 112//111
f 103//112 104//112 112//112 111//112
f 111//113 112//113 121//113 122//113
f 114//114 113//114 120//114 119//114
f 124//115 117//115 109//115 131//115
f 118//116 119//116 126//116 125//116
f 113//117 110//117 123//117 120//117
f 119//118 120//118 127//118 126//118
f 116//119 111//119 122//119 117//119
f 112//120 115//120 118//120 121//120
f 121//121 118//121 125//121 128//121
f 123//122 124//122 131//122 130//122
f 120//123 123//123 130//123 127//123
f 117//124 122//124 129//124 109//124
f 130//125 131//125 139//125 138//125
f 109//126 129//126 137//126 132//126
f 126//127 127//127 135//127 134//127
f 128//128 125//128 133//128 136//128
f 125//129 126//129 134//129 133//129
f 127//130 130//130 138//130 135//130
f 131//131 109//131 132//131 139//131
f 129//132 128//132 136//132 137//132
f 135//133 138//133 140//133
f 138//134 139//134 140//134
f 139//135 132//135 140//135
f 137//136 140//136 132//136
f 137//137 136//137 140//137
f 136//138 133//138 140//138
f 133//139 134//139 140//139
f 134//140 135//140 140//140
o Cube
v 2.606661 0.000000 -2.871766
v 3.522897 0.000000 4.387708
v -4.340394 0.000000 3.125295
v -3.561037 0.000000 -3.789464
v 1.295342 2.000000 -1.295341
v 1.295341 2.000000 1.295342
v -1.295342 2.000000 1.295341
v -1.295341 2.000000 -1.295341
v 4.332495 0.000000 0.672405
v -2.861284 0.000000 -0.125971
v 1.885431 2.000000 0.000001
v -1.885432 2.000000 -0.000000
v 0.041513 0.000000 -3.385474
v 0.441029 0.000000 3.630088
v 0.000001 2.000000 -1.885431
v -0.000001 2.000000 1.885432
v -0.011851 0.000000 -0.107044
v 1.315740 7.341719 0.000001
v 1.244853 6.504179 1.234884
v 0.000000 7.341719 -1.315740
v -1.019942 7.341719 -0.336209
v 0.116622 6.833616 1.628222
v -0.903949 7.341719 0.903948
v -1.315740 7.341719 -0.000000
v 0.903949 7.341719 -0.903948
v -0.938573 8.547012 0.320993
v -1.104536 9.433260 2.091488
v -1.555513 9.433260 1.886046
v -1.104535 10.109742 1.435068
v -2.767365 12.880469 5.124383
v -3.917087 10.746178 1.598295
v -4.107292 10.746178 2.502244
v -3.508513 12.102131 1.598296
v -3.960488 11.424154 2.050270
v -4.166384 11.424154 1.598295
v -4.618358 10.746178 2.050269
v -7.049827 11.302657 5.004323
v -6.370756 13.910293 3.020992
v -6.136715 14.261362 2.786951
v -6.477373 13.910293 2.786951
v -7.904999 16.393946 3.819635
v -3.446468 10.361168 2.321492
v -4.229315 10.389598 1.930205
v -4.278839 10.396189 1.839496
v -2.313025 8.126801 -4.064230
v -2.572070 8.081347 -4.030783
v -2.477190 8.462440 -3.725562
v -2.981321 10.102822 -6.010667
v 0.908204 7.792988 0.393015
v 0.528594 7.647830 0.814135
v 0.372428 7.736097 -0.699253
v 0.074536 7.911673 0.975827
v 0.844871 7.757639 -0.253097
v -0.131072 8.399040 0.298395
v 0.314922 8.172865 0.167638
v 1.130623 7.267758 1.762090
v 0.508290 7.053713 2.014114
v 0.963861 7.504679 1.410030
v 0.659979 7.504673 1.270564
v 1.917435 10.530831 4.509578
v 3.064650 5.590323 3.235596
v 2.596822 5.350353 3.254963
v 2.991556 5.350353 3.075143
v 2.669915 5.590323 3.415416
v 4.250926 4.658554 4.987899
v 1.384089 9.554823 -1.459615
v 1.070100 9.554823 -1.602652
v 1.527126 9.554823 -1.145625
v 1.192876 9.760613 -1.145626
v 3.700260 10.777226 -2.628541
v 3.386271 10.505369 -2.771579
v 3.843297 10.991199 -2.314552
v 3.509048 11.196990 -2.314552
v 6.022830 13.333918 -1.536555
v 3.317508 11.453558 -3.767529
v 3.449430 11.567779 -3.707432
v 3.369092 11.744143 -3.575510
v 3.001391 12.770942 -4.555117
vn 0.000000 -1.000000 0.000000
vn 0.960400 0.062200 0.271500
vn 0.565500 0.809500 0.158000
vn -0.125700 0.705300 0.697700
vn -0.782300 0.622600 0.017300
vn -0.026600 0.713700 -0.699900
vn -0.727700 0.670900 -0.142300
vn 0.655600 0.686900 -0.313700
vn -0.478700 0.079600 0.874300
vn 0.379200 0.028800 0.924900
vn 0.211300 0.639800 -0.738900
vn -0.024700 0.763700 0.645100
vn 0.905800 0.096600 -0.412600
vn -0.905800 0.096600 0.412600
vn 0.412600 0.096600 -0.905800
vn -0.873300 0.111700 -0.474200
vn -0.556300 0.131800 -0.820500
vn -0.694500 0.380000 -0.611000
vn 0.596300 0.759600 -0.259700
vn -0.929700 0.003300 -0.368400
vn 0.588200 0.139000 0.796700
vn 0.935300 0.343700 -0.084300
vn -0.583200 -0.442700 0.681100
vn -0.372800 -0.749600 0.546800
vn -0.735600 -0.270500 -0.621100
vn -0.602400 -0.749600 0.274400
vn -0.827200 0.201800 -0.524400
vn 0.939900 0.237800 0.245000
vn -0.293000 -0.707300 0.643300
vn -0.629400 -0.722200 0.286700
vn -0.365500 -0.629600 0.685500
vn -0.117600 0.289800 -0.949800
vn -0.602300 -0.749600 0.274400
vn -0.541600 -0.019300 -0.840400
vn 0.786500 0.479600 0.389100
vn 0.686600 0.332500 0.646600
vn -0.203500 0.197400 -0.959000
vn 0.532300 0.194400 0.823900
vn -0.237500 0.230400 -0.943700
vn -0.581900 0.564600 -0.585300
vn -0.095400 -0.989600 0.107900
vn 0.648100 0.320300 0.690900
vn 0.605300 0.120900 0.786700
vn -0.252000 0.244500 -0.936300
vn -0.747100 -0.571000 0.340300
vn 0.459500 0.421600 0.781700
vn -0.479500 0.465300 -0.744000
vn -0.863000 -0.317300 0.393100
vn -0.925800 -0.115500 0.359900
vn -0.100900 -0.980000 -0.171400
vn 0.922100 0.380600 0.069800
vn -0.968400 0.044400 0.245500
vn 0.029600 -0.696300 -0.717100
vn 0.340300 0.751800 -0.564800
vn -0.228900 0.497400 0.836800
vn 0.711200 0.663300 -0.233100
vn 0.707100 0.506800 0.493100
vn 0.853600 0.312700 -0.416700
vn 0.097100 0.836200 -0.539800
vn 0.507600 -0.557100 -0.657200
vn 0.180900 0.589500 0.787300
vn 0.313800 0.856100 -0.410500
vn 0.505100 0.766000 0.397800
vn 0.562800 0.722800 0.401000
vn 0.298500 0.786800 0.540300
vn -0.349700 0.645200 0.679300
vn 0.327500 0.924400 0.195600
vn -0.632000 -0.237500 0.737700
vn 0.680100 -0.506900 -0.529600
vn 0.763300 0.386200 -0.517900
vn -0.310000 -0.900000 -0.306500
vn 0.118400 0.750000 0.650700
vn 0.888400 -0.424300 -0.175300
vn -0.933100 0.358600 0.027200
vn 0.467600 -0.632600 0.617400
vn 0.922600 0.092900 -0.374500
vn 0.325800 0.624400 -0.709900
vn -0.928900 0.349200 -0.123700
vn -0.581400 0.653200 -0.485100
vn 0.517800 -0.853700 0.055000
vn 0.846700 0.092500 -0.524000
vn 0.169000 0.913100 0.371100
vn -0.121200 -0.956300 -0.266100
vn -0.747300 -0.196800 0.634700
vn 0.410200 -0.911400 -0.034300
vn 0.226700 0.368200 0.901700
vn 0.924700 0.375900 0.060500
vn -0.986300 0.079900 0.144100
vn 0.695500 -0.700400 0.160400
vn -0.194300 0.529300 -0.825900
vn -0.126200 -0.204900 0.970600
vn 0.166100 0.823700 0.542200
vn 0.923100 0.381000 0.052800
vn -0.948400 -0.039500 0.314600
vn 0.598400 -0.300400 -0.742700
usemtl Material.001
s off
f 157//141 154//141 143//141 150//141
f 146//142 151//142 158//142 159//142
f 149//143 151//143 146//143 142//143
f 154//144 156//144 147//144 143//144
f 150//145 152//145 148//145 144//145
f 155//146 153//146 144//146 148//146
f 143//147 147//147 152//147 150//147
f 141//148 145//148 151//148 149//148
f 147//149 156//149 162//149 163//149
f 153//141 157//141 150//141 144//141
f 141//141 149//141 157//141 153//141
f 156//150 146//150 159//150 162//150
f 145//151 141//151 153//151 155//151
f 142//152 146//152 156//152 154//152
f 151//153 145//153 165//153 158//153
f 149//141 142//141 154//141 157//141
f 152//154 147//154 163//154 164//154
f 145//155 155//155 160//155 165//155
f 148//156 152//156 164//156 161//156
f 155//157 148//157 161//157 160//157
f 164//158 166//158 161//158
f 166//159 160//159 185//159 187//159
f 166//160 163//160 168//160 169//160
f 166//161 173//161 174//161
f 162//162 166//162 169//162 167//162
f 163//163 162//163 167//163 168//163
f 182//164 172//164 176//164 183//164
f 164//165 171//165 175//165
f 164//166 163//166 183//166 184//166
f 169//167 168//167 170//167
f 167//168 169//168 170//168
f 168//169 167//169 170//169
f 175//170 174//170 178//170 180//170
f 163//171 182//171 183//171
f 166//172 164//172 175//172
f 184//173 183//173 176//173
f 171//174 164//174 184//174
f 182//175 163//175 174//175
f 163//176 166//176 174//176
f 173//177 166//177 175//177
f 174//178 173//178 179//178 178//178
f 173//179 175//179 180//179 179//179
f 174//180 176//180 177//180
f 176//181 172//181 177//181
f 172//182 174//182 177//182
f 178//183 179//183 181//183
f 179//184 180//184 181//184
f 180//185 178//185 181//185
f 172//186 182//186 174//186
f 176//174 171//174 184//174
f 176//187 174//187 171//187
f 171//188 174//188 175//188
f 161//189 166//189 187//189 186//189
f 160//190 161//190 186//190 185//190
f 187//191 185//191 188//191
f 186//192 187//192 188//192
f 185//193 186//193 188//193
f 165//194 160//194 191//194 193//194
f 166//195 162//195 192//195
f 158//196 165//196 193//196 189//196
f 159//197 158//197 189//197 190//197
f 159//198 190//198 198//198 196//198
f 160//199 166//199 194//199 191//199
f 193//200 191//200 207//200 206//200
f 195//201 189//201 208//201 209//201
f 194//202 195//202 191//202
f 192//203 195//203 194//203
f 192//204 190//204 195//204
f 189//205 195//205 190//205
f 192//206 162//206 197//206 199//206
f 190//207 192//207 199//207 198//207
f 197//208 162//208 202//208 204//208
f 210//209 211//209 215//209 216//209
f 159//210 196//210 201//210 203//210
f 162//211 159//211 203//211 202//211
f 196//212 197//212 204//212 201//212
f 189//213 193//213 206//213 208//213
f 199//214 197//214 200//214
f 197//215 196//215 200//215
f 196//216 198//216 200//216
f 198//217 199//217 200//217
f 191//218 195//218 209//218 207//218
f 207//219 209//219 213//219 211//219
f 208//220 206//220 210//220 212//220
f 203//221 201//221 205//221
f 201//222 204//222 205//222
f 202//223 203//223 205//223
f 204//224 202//224 205//224
f 206//225 207//225 211//225 210//225
f 209//226 208//226 212//226 213//226
f 213//227 210//227 216//227 217//227
f 211//228 213//228 217//228 215//228
f 212//229 210//229 214//229
f 210//230 213//230 214//230
f 213//231 212//231 214//231
f 194//232 166//232 192//232
f 217//233 216//233 218//233
f 215//234 217//234 218//234
f 216//235 215//235 218//235
